<?xml version="1.0" encoding="iso-8859-1"?>
<!-- Uploaded to: SVG Repo, www.svgrepo.com, Generator: SVG Repo Mixer Tools -->
<svg class="svg" version="1.1" id="Layer_1" xmlns="http://www.w3.org/2000/svg" xmlns:xlink="http://www.w3.org/1999/xlink" 
	 viewBox="0 0 512 512" xml:space="preserve">
<g>
	<g>
		<g>
			<circle cx="238.935" cy="59.733" r="8.533"/>
			<path d="M273.068,247.467h-25.6V204.8c0-4.71-3.823-8.533-8.533-8.533s-8.533,3.823-8.533,8.533V256
				c0,4.71,3.823,8.533,8.533,8.533h34.133c4.71,0,8.533-3.823,8.533-8.533S277.779,247.467,273.068,247.467z"/>
			<path d="M375.465,221.867h-22.039c-2.943-9.854-7.117-19.181-12.358-27.793l-11.449-59.998
				c-3.513-15.8-15.695-27.556-30.95-30.784V25.6c0-14.114-11.486-25.6-25.6-25.6h-68.267c-14.114,0-25.6,11.486-25.6,25.6v77.692
				c-15.256,3.233-27.446,15.021-31.002,31.031l-11.398,59.751c-10.996,18.069-17.334,39.271-17.334,61.926
				c0,22.649,6.334,43.845,17.325,61.911l11.461,60.021c3.505,15.792,15.692,27.546,30.947,30.775V486.4
				c0,14.114,11.486,25.6,25.6,25.6h68.267c14.114,0,25.6-11.486,25.6-25.6v-77.693c15.253-3.233,27.449-15.021,31.005-31.031
				l11.401-59.761c5.238-8.609,9.41-17.932,12.351-27.781h22.039c9.412,0,17.067-7.654,17.067-17.067v-34.133
				C392.532,229.521,384.877,221.867,375.465,221.867z M325.542,310.575c-0.139,0.183-0.283,0.362-0.408,0.558
				c-2.44,3.801-5.15,7.443-8.092,10.907l-11.731-11.731c-3.337-3.337-8.738-3.337-12.066,0c-3.337,3.328-3.337,8.73,0,12.066
				l11.711,11.711c-16.1,13.638-35.806,21.938-56.567,23.873c-0.012,0.001-0.024,0.002-0.037,0.003
				c-0.293,0.027-0.59,0.037-0.883,0.062v-16.691c0-4.71-3.823-8.533-8.533-8.533s-8.533,3.823-8.533,8.533v16.691
				c-0.299-0.025-0.6-0.035-0.898-0.063c-0.001,0-0.003,0-0.004,0c-20.779-1.934-40.496-10.238-56.583-23.876l11.709-11.709
				c3.337-3.336,3.337-8.738,0-12.066c-3.328-3.337-8.73-3.337-12.066,0l-11.732,11.731c-2.945-3.468-5.652-7.11-8.085-10.908
				c-0.126-0.197-0.272-0.375-0.414-0.557c-8.565-13.543-14.041-29.222-15.435-46.043h16.708c4.71,0,8.533-3.823,8.533-8.533
				s-3.823-8.533-8.533-8.533h-16.708c1.392-16.792,6.852-32.445,15.391-45.971c0.157-0.202,0.316-0.403,0.456-0.62
				c2.435-3.8,5.142-7.444,8.089-10.915l11.731,11.731c1.664,1.664,3.849,2.5,6.033,2.5c2.185,0,4.369-0.836,6.033-2.5
				c3.337-3.337,3.337-8.73,0-12.066l-11.71-11.71c16.096-13.63,35.791-21.934,56.552-23.873c0.024-0.002,0.048-0.004,0.072-0.006
				c0.286-0.027,0.575-0.036,0.862-0.06v16.692c0,4.71,3.823,8.533,8.533,8.533s8.533-3.823,8.533-8.533v-16.691
				c0.288,0.024,0.577,0.034,0.865,0.06c0.022,0.002,0.045,0.004,0.067,0.006c20.751,1.938,40.441,10.237,56.552,23.875
				l-11.709,11.708c-3.336,3.337-3.336,8.73,0,12.066c1.664,1.664,3.849,2.5,6.033,2.5c2.185,0,4.369-0.836,6.033-2.5l11.732-11.732
				c2.945,3.469,5.653,7.114,8.089,10.915c0.115,0.179,0.255,0.341,0.386,0.509c5.746,9.077,10.103,19.114,12.775,29.813
				c0.036,0.39,0.091,0.78,0.182,1.166c1.205,5.08,2.028,10.135,2.471,15.104h-16.675c-4.71,0-8.533,3.823-8.533,8.533
				s3.823,8.533,8.533,8.533h16.676c-0.443,4.97-1.266,10.023-2.471,15.104c-0.091,0.386-0.145,0.776-0.182,1.166
				C335.624,291.486,331.275,301.509,325.542,310.575z M196.268,25.6c0-4.702,3.831-8.533,8.533-8.533h68.267
				c4.702,0,8.533,3.831,8.533,8.533v76.8h-85.333V25.6z M187.735,119.467h102.4c11.042,0,20.429,7.526,22.767,18.057l5.628,29.468
				c-18.557-16.612-42.318-27.517-68.505-29.939c-0.133-0.012-0.265-0.023-0.398-0.035c-0.744-0.066-1.488-0.128-2.236-0.181
				c-0.304-0.022-0.609-0.039-0.914-0.058c-0.608-0.038-1.215-0.076-1.825-0.105c-0.493-0.024-0.987-0.039-1.481-0.057
				c-0.448-0.016-0.895-0.036-1.344-0.047c-0.963-0.023-1.927-0.037-2.893-0.037c-0.966,0-1.931,0.013-2.895,0.037
				c-0.443,0.011-0.885,0.03-1.327,0.046c-0.501,0.018-1.001,0.033-1.501,0.057c-0.603,0.029-1.203,0.067-1.804,0.104
				c-0.314,0.02-0.627,0.037-0.941,0.06c-0.737,0.052-1.47,0.113-2.203,0.178c-0.147,0.013-0.294,0.025-0.44,0.039
				c-26.179,2.426-49.932,13.33-68.484,29.937l5.569-29.212C167.306,126.993,176.693,119.467,187.735,119.467z M281.602,486.4
				c0,4.702-3.831,8.533-8.533,8.533h-68.267c-4.702,0-8.533-3.831-8.533-8.533v-76.8h85.333V486.4z M290.138,392.533h-102.4
				c-11.042,0-20.429-7.526-22.775-18.057l-5.621-29.465c18.57,16.622,42.351,27.531,68.56,29.942
				c0.079,0.007,0.158,0.014,0.237,0.021c0.796,0.072,1.593,0.138,2.394,0.193c0.234,0.017,0.469,0.029,0.703,0.045
				c0.675,0.043,1.35,0.085,2.028,0.117c0.394,0.019,0.788,0.03,1.182,0.045c0.546,0.02,1.091,0.044,1.639,0.057
				c0.689,0.017,1.38,0.022,2.07,0.026c0.26,0.002,0.519,0.01,0.779,0.01c0.233,0,0.464-0.008,0.696-0.009
				c0.721-0.004,1.443-0.01,2.163-0.027c0.529-0.013,1.056-0.035,1.583-0.055c0.412-0.015,0.824-0.027,1.235-0.047
				c0.666-0.031,1.33-0.073,1.994-0.115c0.245-0.016,0.489-0.029,0.734-0.047c0.796-0.056,1.59-0.121,2.382-0.192
				c0.079-0.007,0.157-0.014,0.236-0.021c26.217-2.409,50.006-13.321,68.58-29.95l-5.58,29.225
				C310.567,385.006,301.181,392.533,290.138,392.533z M375.465,273.067h-18.287c0.801-5.576,1.224-11.272,1.224-17.067
				s-0.423-11.491-1.224-17.067h18.287V273.067z"/>
		</g>
	</g>
</g>
</svg>