<?xml version="1.0" encoding="iso-8859-1"?>
<!-- Uploaded to: SVG Repo, www.svgrepo.com, Generator: SVG Repo Mixer Tools -->
<svg class="svg" version="1.1" id="Layer_1" xmlns="http://www.w3.org/2000/svg" xmlns:xlink="http://www.w3.org/1999/xlink" 
	 viewBox="0 0 512 512" xml:space="preserve">
<g>
	<g>
		<g>
			<circle cx="238.716" cy="102.4" r="8.533"/>
			<circle cx="238.716" cy="51.2" r="8.533"/>
			<path d="M375.249,221.867h-22.144c-4.932-16.401-13.244-31.352-24.209-43.981l-23.808,23.808c-1.664,1.664-3.849,2.5-6.033,2.5
				c-2.185,0-4.361-0.836-6.033-2.5c-3.328-3.336-3.328-8.738,0-12.066l12.826-12.826c0.384,0.06,0.751,0.188,1.135,0.188
				c1.348,0,2.705-0.316,3.942-0.964c2.961-1.545,4.753-4.668,4.582-8.004l-0.043-0.836l1.365-1.365
				c-0.478-0.418-1.007-0.785-1.502-1.195L307.264,8.098C307.034,3.558,303.287,0,298.748,0H179.281c-4.54,0-8.286,3.55-8.525,8.081
				l-8.329,156.288c-0.606,0.495-1.237,0.939-1.826,1.451l1.655,1.655l-0.026,0.529c-0.128,2.338,0.862,4.625,2.475,6.323
				c1.741,1.843,4.326,2.594,6.852,2.449l12.851,12.851c3.328,3.328,3.328,8.73,0,12.066c-1.673,1.664-3.849,2.5-6.033,2.5
				c-2.185,0-4.369-0.836-6.033-2.5l-23.808-23.808c-16.435,18.944-26.965,43.068-28.851,69.581h33.698
				c4.71,0,8.533,3.823,8.533,8.533s-3.823,8.533-8.533,8.533h-33.698c1.886,26.513,12.416,50.637,28.851,69.581l23.808-23.808
				c3.328-3.328,8.73-3.328,12.066,0c3.328,3.337,3.328,8.738,0,12.066l-12.715,12.715c-1.655-0.188-3.354,0.085-4.89,0.887
				c-2.961,1.545-4.745,4.668-4.574,8.004l0.026,0.546l-1.655,1.655c0.58,0.503,1.22,0.947,1.818,1.442l8.038,156.279
				c0.239,4.54,3.985,8.098,8.525,8.098h119.467c4.54,0,8.277-3.55,8.525-8.081l8.354-156.535c0.486-0.418,1.015-0.777,1.502-1.203
				l-1.365-1.365l0.043-0.819c0.119-2.338-0.87-4.625-2.483-6.323c-1.8-1.903-4.514-2.645-7.117-2.415l-12.885-12.885
				c-3.328-3.328-3.328-8.73,0-12.066c3.337-3.328,8.738-3.328,12.066,0l23.808,23.808c10.965-12.629,19.277-27.58,24.209-43.981
				h22.144c9.412,0,17.067-7.654,17.067-17.067v-34.133C392.316,229.521,384.661,221.867,375.249,221.867z M297.562,359.902
				l-7.202,135.031h-103.27l-6.946-134.869c5.188,2.944,10.581,5.436,16.094,7.552c0.077,0.026,0.145,0.043,0.213,0.068
				c3.2,1.22,6.443,2.304,9.737,3.243c0.111,0.034,0.213,0.068,0.333,0.094c3.371,0.947,6.784,1.766,10.249,2.406
				c0.128,0.026,0.256,0.043,0.393,0.068c3.055,0.555,6.144,0.973,9.259,1.289c0.759,0.077,1.519,0.154,2.287,0.222
				c3.32,0.273,6.648,0.461,10.01,0.461s6.699-0.188,10.01-0.461c0.777-0.068,1.545-0.145,2.313-0.23
				c3.063-0.307,6.101-0.725,9.114-1.263c0.188-0.034,0.375-0.06,0.563-0.094c3.456-0.649,6.869-1.459,10.24-2.406
				c0.077-0.017,0.145-0.043,0.222-0.06c3.294-0.939,6.545-2.031,9.754-3.251c0.102-0.034,0.205-0.068,0.299-0.111
				C286.835,365.44,292.305,362.914,297.562,359.902z M238.716,196.267c4.71,0,8.533,3.823,8.533,8.533v42.667h25.6
				c4.71,0,8.533,3.823,8.533,8.533s-3.823,8.533-8.533,8.533h-34.133c-4.71,0-8.533-3.823-8.533-8.533v-51.2
				C230.182,200.09,234.005,196.267,238.716,196.267z M230.182,170.667v-16.683c2.918-0.247,5.862-0.384,8.832-0.384
				c2.765,0,5.513,0.119,8.235,0.341v16.725c0,4.71-3.823,8.533-8.533,8.533S230.182,175.377,230.182,170.667z M238.716,332.8
				c4.71,0,8.533,3.823,8.533,8.533v16.717c-2.825,0.23-5.666,0.35-8.533,0.35c-2.867,0-5.709-0.119-8.533-0.35v-16.717
				C230.182,336.623,234.005,332.8,238.716,332.8z M250.364,137.122c-0.358-0.034-0.717-0.068-1.075-0.094
				c-3.405-0.299-6.827-0.495-10.274-0.495h-0.179h-0.119c0.017,0,0.026,0.009,0.043,0.009h-0.094c0.017,0,0.034-0.009,0.051-0.009
				c-0.222,0-0.444,0.026-0.666,0.026c-2.944,0.026-5.871,0.179-8.772,0.41c-1.195,0.094-2.372,0.213-3.55,0.341
				c-2.125,0.239-4.241,0.538-6.34,0.887c-1.109,0.188-2.236,0.333-3.345,0.546c-2.756,0.538-5.487,1.186-8.201,1.92
				c-1.476,0.401-2.91,0.862-4.361,1.314c-1.417,0.435-2.825,0.905-4.216,1.399c-1.638,0.58-3.26,1.161-4.864,1.809
				c-0.794,0.324-1.57,0.691-2.355,1.024c-4.079,1.749-8.047,3.703-11.878,5.879l7.202-135.023h103.27l6.946,134.878
				C283.038,143.676,267.055,138.692,250.364,137.122z M340.587,264.533h-16.538c-4.71,0-8.533-3.823-8.533-8.533
				s3.823-8.533,8.533-8.533h16.538c0.256,2.867,0.529,5.734,0.529,8.533C341.116,258.799,340.843,261.666,340.587,264.533z
				 M375.249,273.067h-18.355c0.102-0.708,0.145-1.425,0.239-2.133c0.222-1.801,0.469-3.601,0.606-5.436
				c0.273-3.191,0.444-6.366,0.444-9.498c0-3.132-0.171-6.306-0.444-9.498c-0.145-1.835-0.384-3.635-0.606-5.436
				c-0.094-0.717-0.137-1.425-0.239-2.133h18.355V273.067z"/>
		</g>
	</g>
</g>
</svg>