<?xml version="1.0" encoding="iso-8859-1"?>
<!-- Uploaded to: SVG Repo, www.svgrepo.com, Generator: SVG Repo Mixer Tools -->
<svg class="svg" version="1.1" id="Layer_1" xmlns="http://www.w3.org/2000/svg" xmlns:xlink="http://www.w3.org/1999/xlink" 
	 viewBox="0 0 512 512" xml:space="preserve">
<g>
	<g>
		<g>
			<circle cx="238.716" cy="102.4" r="8.533"/>
			<circle cx="238.716" cy="51.2" r="8.533"/>
			<path d="M375.249,221.867h-22.093c-2.91-9.728-7.091-18.876-12.245-27.401c0-0.017,0.009-0.034,0-0.051l-11.511-51.806
				c-3.507-15.787-15.71-27.443-30.95-30.686V25.6c0-14.114-11.486-25.6-25.6-25.6h-68.267c-14.114,0-25.6,11.486-25.6,25.6v86.323
				c-15.241,3.243-27.443,14.899-30.95,30.686l-11.511,51.806v0.026c-9.455,15.701-15.462,33.715-16.836,53.026h33.698
				c4.71,0,8.533,3.823,8.533,8.533s-3.823,8.533-8.533,8.533h-33.698c1.374,19.311,7.381,37.325,16.836,53.026v0.026l11.511,51.806
				c3.507,15.787,15.71,27.443,30.95,30.686V486.4c0,14.114,11.486,25.6,25.6,25.6h68.267c14.114,0,25.6-11.486,25.6-25.6v-86.323
				c15.241-3.243,27.443-14.899,30.95-30.686l11.511-51.806c0.009-0.017,0-0.034,0-0.051c5.154-8.525,9.335-17.673,12.245-27.401
				h22.093c9.412,0,17.067-7.654,17.067-17.067v-34.133C392.316,229.521,384.661,221.867,375.249,221.867z M298.449,129.587
				c7.1,2.748,12.544,8.875,14.293,16.725l4.369,19.652c-0.384-0.333-0.811-0.623-1.195-0.947c-1.664-1.417-3.405-2.739-5.146-4.07
				c-1.297-0.981-2.577-1.98-3.917-2.91c-1.852-1.297-3.772-2.492-5.7-3.686c-0.913-0.563-1.775-1.203-2.705-1.741V129.587z
				 M293.022,189.628l11.631-11.631c4.343,3.686,8.491,7.595,12.177,11.955l-11.742,11.742c-1.664,1.664-3.849,2.5-6.033,2.5
				c-2.185,0-4.361-0.836-6.033-2.5C289.694,198.357,289.694,192.956,293.022,189.628z M164.689,146.313
				c1.749-7.851,7.194-13.978,14.293-16.725v23.023c-0.922,0.529-1.775,1.169-2.68,1.732c-1.946,1.203-3.883,2.406-5.751,3.712
				c-1.314,0.913-2.577,1.894-3.849,2.859c-1.758,1.34-3.507,2.679-5.188,4.104c-0.384,0.333-0.811,0.614-1.195,0.947
				L164.689,146.313z M160.602,189.952c3.686-4.361,7.834-8.269,12.177-11.955l11.631,11.631c3.328,3.328,3.328,8.73,0,12.066
				c-1.673,1.664-3.849,2.5-6.033,2.5c-2.185,0-4.369-0.836-6.033-2.5L160.602,189.952z M178.982,382.413
				c-7.1-2.748-12.544-8.875-14.293-16.725l-4.369-19.652c0.384,0.333,0.811,0.623,1.195,0.947c1.664,1.417,3.396,2.739,5.137,4.062
				c1.306,0.99,2.586,1.997,3.934,2.927c1.826,1.28,3.712,2.458,5.615,3.627c0.939,0.58,1.826,1.246,2.782,1.801V382.413z
				 M184.41,322.372l-11.631,11.631c-4.344-3.686-8.491-7.595-12.177-11.955l11.742-11.742c3.328-3.328,8.73-3.328,12.066,0
				C187.738,313.643,187.738,319.044,184.41,322.372z M178.982,264.533c-4.71,0-8.533-3.823-8.533-8.533s3.823-8.533,8.533-8.533
				s8.533,3.823,8.533,8.533S183.693,264.533,178.982,264.533z M281.382,392.533V486.4c0,4.702-3.831,8.533-8.533,8.533h-68.267
				c-4.702,0-8.533-3.831-8.533-8.533v-93.867v-24.969c1.161,0.444,2.355,0.768,3.524,1.169c1.8,0.631,3.593,1.271,5.436,1.809
				c1.852,0.546,3.721,0.99,5.589,1.442c1.826,0.444,3.635,0.913,5.487,1.271c1.877,0.358,3.763,0.589,5.649,0.862
				c1.903,0.273,3.789,0.597,5.717,0.785c2.176,0.196,4.352,0.239,6.528,0.324c1.587,0.06,3.14,0.239,4.736,0.239
				c-0.06,0-0.102-0.034-0.162-0.034h0.324c-0.06,0-0.102,0.034-0.162,0.034c1.596,0,3.149-0.179,4.736-0.239
				c2.176-0.085,4.352-0.128,6.528-0.324c1.929-0.188,3.814-0.512,5.717-0.785c1.886-0.273,3.772-0.503,5.649-0.862
				c1.852-0.358,3.661-0.828,5.487-1.271c1.869-0.452,3.738-0.896,5.589-1.442c1.843-0.538,3.635-1.178,5.436-1.809
				c1.169-0.401,2.364-0.725,3.524-1.169V392.533z M230.182,357.837v-16.503c0-4.71,3.823-8.533,8.533-8.533
				s8.533,3.823,8.533,8.533v16.503C241.566,358.315,235.866,358.315,230.182,357.837z M272.849,264.533h-34.133
				c-4.71,0-8.533-3.823-8.533-8.533v-51.2c0-4.71,3.823-8.533,8.533-8.533s8.533,3.823,8.533,8.533v42.667h25.6
				c4.71,0,8.533,3.823,8.533,8.533S277.559,264.533,272.849,264.533z M230.182,170.667v-16.503c5.683-0.478,11.383-0.478,17.067,0
				v16.503c0,4.71-3.823,8.533-8.533,8.533S230.182,175.377,230.182,170.667z M281.382,119.467v24.969
				c-1.118-0.427-2.27-0.734-3.396-1.126c-1.86-0.657-3.712-1.306-5.623-1.869c-1.775-0.521-3.584-0.947-5.385-1.382
				c-1.886-0.461-3.755-0.947-5.683-1.323c-1.783-0.341-3.593-0.563-5.393-0.819c-1.988-0.29-3.942-0.632-5.956-0.819
				c-1.971-0.179-3.942-0.205-5.922-0.299c-1.775-0.077-3.516-0.265-5.308-0.265c0.06,0,0.119,0.034,0.179,0.034h-0.358
				c0.06,0,0.119-0.034,0.179-0.034c-1.809,0-3.567,0.188-5.35,0.273c-1.963,0.085-3.917,0.111-5.871,0.29
				c-2.031,0.196-4.019,0.538-6.025,0.828c-1.775,0.256-3.55,0.478-5.316,0.811c-1.954,0.375-3.866,0.87-5.786,1.34
				c-1.758,0.435-3.524,0.845-5.265,1.357c-1.954,0.572-3.857,1.246-5.769,1.92c-1.092,0.384-2.21,0.674-3.285,1.092v-24.977V25.6
				c0-4.702,3.831-8.533,8.533-8.533h68.267c4.702,0,8.533,3.831,8.533,8.533V119.467z M298.449,247.467
				c4.71,0,8.533,3.823,8.533,8.533s-3.823,8.533-8.533,8.533c-4.71,0-8.533-3.823-8.533-8.533S293.739,247.467,298.449,247.467z
				 M293.022,322.372c-3.328-3.328-3.328-8.73,0-12.066c3.337-3.328,8.738-3.328,12.066,0l11.742,11.742
				c-3.686,4.361-7.834,8.269-12.177,11.955L293.022,322.372z M312.742,365.688c-1.749,7.851-7.194,13.978-14.293,16.725V359.39
				c0.922-0.529,1.775-1.169,2.679-1.732c1.946-1.203,3.883-2.406,5.751-3.712c1.314-0.913,2.577-1.894,3.849-2.859
				c1.758-1.34,3.507-2.68,5.188-4.105c0.384-0.333,0.811-0.614,1.195-0.947L312.742,365.688z M340.587,264.533h-16.538
				c-4.71,0-8.533-3.823-8.533-8.533s3.823-8.533,8.533-8.533h16.538c0.256,2.867,0.529,5.734,0.529,8.533
				C341.116,258.799,340.843,261.666,340.587,264.533z M375.249,273.067h-18.355c0.085-0.606,0.12-1.203,0.205-1.801
				c0.213-1.707,0.427-3.396,0.572-5.12c0.307-3.413,0.512-6.801,0.512-10.146c0-3.345-0.205-6.733-0.512-10.138
				c-0.145-1.732-0.358-3.422-0.572-5.129c-0.085-0.597-0.12-1.195-0.205-1.801h18.355V273.067z"/>
		</g>
	</g>
</g>
</svg>