<?xml version="1.0" encoding="iso-8859-1"?>
<!-- Uploaded to: SVG Repo, www.svgrepo.com, Generator: SVG Repo Mixer Tools -->
<svg class="svg" version="1.1" id="Layer_1" xmlns="http://www.w3.org/2000/svg" xmlns:xlink="http://www.w3.org/1999/xlink" 
	 viewBox="0 0 512 512" xml:space="preserve">
<g>
	<g>
		<g>
			<circle cx="256" cy="102.4" r="8.533"/>
			<circle cx="256" cy="51.2" r="8.533"/>
			<path d="M315.733,162.992V25.6c0-14.114-11.486-25.6-25.6-25.6h-68.267c-14.114,0-25.6,11.486-25.6,25.6v137.392
				c-19.451,3.964-34.133,21.203-34.133,41.808v102.4c0,20.605,14.682,37.844,34.133,41.808V486.4c0,14.114,11.486,25.6,25.6,25.6
				h68.267c14.114,0,25.6-11.486,25.6-25.6V349.008c19.451-3.964,34.133-21.203,34.133-41.808V204.8
				C349.867,184.195,335.185,166.956,315.733,162.992z M213.333,25.6c0-4.702,3.831-8.533,8.533-8.533h68.267
				c4.702,0,8.533,3.831,8.533,8.533v136.533h-85.333V25.6z M298.667,486.4c0,4.702-3.831,8.533-8.533,8.533h-68.267
				c-4.702,0-8.533-3.831-8.533-8.533V349.867h85.333V486.4z M307.2,332.8h-42.667v-17.067c0-4.71-3.823-8.533-8.533-8.533
				c-4.71,0-8.533,3.823-8.533,8.533V332.8H204.8c-14.114,0-25.6-11.486-25.6-25.6v-42.667h17.067c4.71,0,8.533-3.823,8.533-8.533
				s-3.823-8.533-8.533-8.533H179.2V204.8c0-14.114,11.486-25.6,25.6-25.6h42.667v17.067c0,4.71,3.823,8.533,8.533,8.533
				c4.71,0,8.533-3.823,8.533-8.533V179.2H307.2c14.114,0,25.6,11.486,25.6,25.6v42.667h-17.067c-4.71,0-8.533,3.823-8.533,8.533
				s3.823,8.533,8.533,8.533H332.8V307.2C332.8,321.314,321.314,332.8,307.2,332.8z"/>
			<path d="M281.6,247.467h-17.067v-25.6c0-4.71-3.823-8.533-8.533-8.533c-4.71,0-8.533,3.823-8.533,8.533V256
				c0,4.71,3.823,8.533,8.533,8.533h25.6c4.71,0,8.533-3.823,8.533-8.533S286.31,247.467,281.6,247.467z"/>
		</g>
	</g>
</g>
</svg>