<?xml version="1.0" encoding="iso-8859-1"?>
<!-- Uploaded to: SVG Repo, www.svgrepo.com, Generator: SVG Repo Mixer Tools -->
<svg class="svg" version="1.1" id="Layer_1" xmlns="http://www.w3.org/2000/svg" xmlns:xlink="http://www.w3.org/1999/xlink" 
	 viewBox="0 0 512 512" xml:space="preserve">
<g>
	<g>
		<g>
			<path d="M392.532,221.867h-22.04c-2.938-9.838-7.104-19.151-12.333-27.752l-11.474-67.964
				c-3.505-15.8-15.693-27.556-30.95-30.785V25.6c0-14.114-11.486-25.6-25.6-25.6h-68.267c-14.114,0-25.6,11.486-25.6,25.6v69.764
				c-15.259,3.238-27.458,15.056-31.036,31.218l-11.388,67.531c-6.72,11.052-11.689,23.277-14.54,36.287h-19.837
				c-9.412,0-17.067,7.654-17.067,17.067v17.067c0,9.412,7.654,17.067,17.067,17.067h19.837c2.852,13.01,7.821,25.237,14.541,36.289
				l11.473,67.957c3.505,15.8,15.693,27.556,30.95,30.784v69.77c0,14.114,11.486,25.6,25.6,25.6h68.267
				c14.114,0,25.6-11.486,25.6-25.6v-69.772c15.259-3.237,27.458-15.048,31.036-31.21l11.387-67.532
				c5.23-8.601,9.396-17.915,12.334-27.753h22.04c9.412,0,17.067-7.654,17.067-17.067v-34.133
				C409.599,229.521,401.944,221.867,392.532,221.867z M342.605,310.58c-0.136,0.18-0.278,0.355-0.4,0.547
				c-2.455,3.829-5.158,7.479-8.079,10.932l-11.749-11.749c-3.336-3.337-8.738-3.337-12.066,0c-3.337,3.328-3.337,8.73,0,12.066
				l11.749,11.749c-5.771,4.888-12.074,9.145-18.81,12.654c-0.19,0.1-0.363,0.222-0.544,0.335
				c-11.617,5.979-24.519,9.796-38.172,10.927v-16.708c0-4.71-3.814-8.533-8.533-8.533s-8.533,3.823-8.533,8.533v16.708
				c-13.687-1.135-26.619-4.969-38.259-10.973c-0.153-0.092-0.296-0.196-0.456-0.279c-6.736-3.514-13.041-7.773-18.812-12.663
				l11.75-11.75c3.337-3.336,3.337-8.738,0-12.066c-3.328-3.337-8.73-3.337-12.066,0l-11.749,11.749
				c-2.921-3.453-5.623-7.102-8.078-10.931c-0.112-0.176-0.244-0.334-0.37-0.498c-7.109-11.225-12.093-23.921-14.39-37.519
				c0.003-0.452-0.018-0.905-0.089-1.358c-0.392-2.529-0.692-4.923-0.912-7.219h16.631c4.719,0,8.533-3.823,8.533-8.533
				s-3.814-8.533-8.533-8.533h-16.631c0.22-2.298,0.52-4.695,0.912-7.228c0.07-0.45,0.091-0.901,0.089-1.35
				c2.288-13.546,7.244-26.195,14.308-37.388c0.159-0.204,0.319-0.407,0.459-0.628c2.454-3.827,5.155-7.476,8.075-10.927
				l11.745,11.745c1.664,1.664,3.849,2.5,6.033,2.5c2.185,0,4.369-0.836,6.033-2.5c3.337-3.337,3.337-8.73,0-12.066l-11.748-11.748
				c5.771-4.891,12.074-9.151,18.808-12.665c0.161-0.084,0.306-0.189,0.461-0.282c11.639-6.004,24.569-9.837,38.255-10.971v16.708
				c0,4.71,3.814,8.533,8.533,8.533s8.533-3.823,8.533-8.533v-16.708c13.686,1.134,26.618,4.968,38.257,10.972
				c0.157,0.095,0.304,0.201,0.468,0.286c6.73,3.511,13.031,7.769,18.802,12.658l-11.75,11.75c-3.337,3.337-3.337,8.73,0,12.066
				c1.664,1.664,3.849,2.5,6.033,2.5c2.185,0,4.369-0.836,6.033-2.5l11.749-11.749c2.921,3.451,5.623,7.099,8.08,10.927
				c0.096,0.151,0.216,0.286,0.324,0.429c5.777,9.106,10.155,19.182,12.835,29.924c0.036,0.379,0.089,0.757,0.176,1.133
				c1.205,5.09,2.027,10.145,2.471,15.113h-16.676c-4.719,0-8.533,3.823-8.533,8.533s3.814,8.533,8.533,8.533h16.676
				c-0.443,4.97-1.266,10.027-2.471,15.113c-0.087,0.375-0.14,0.754-0.176,1.133C352.696,291.472,348.345,301.505,342.605,310.58z
				 M298.668,401.067h-85.333v-33.482c13.257,5.086,27.64,7.882,42.666,7.882c15.026,0,29.409-2.796,42.667-7.882V401.067z
				 M213.335,110.933h85.333v33.482c-13.257-5.086-27.641-7.882-42.667-7.882s-29.409,2.796-42.667,7.882V110.933z M329.934,129.419
				l6.46,38.285c-6.308-5.748-13.232-10.829-20.66-15.135V113.12C322.826,115.843,328.262,121.884,329.934,129.419z M213.335,25.6
				c0-4.702,3.823-8.533,8.533-8.533h68.267c4.71,0,8.533,3.831,8.533,8.533v68.267h-85.333V25.6z M181.983,129.85
				c1.741-7.851,7.185-13.978,14.285-16.725v39.444c-7.431,4.308-14.358,9.391-20.667,15.142L181.983,129.85z M119.468,264.533
				v-17.067h17.375c-0.2,2.819-0.308,5.664-0.308,8.533s0.108,5.714,0.308,8.533H119.468z M182.069,382.578l-6.46-38.28
				c6.307,5.748,13.232,10.828,20.659,15.134v39.453C189.178,396.154,183.742,390.112,182.069,382.578z M298.668,486.4
				c0,4.702-3.823,8.533-8.533,8.533h-68.267c-4.71,0-8.533-3.831-8.533-8.533v-68.267h85.333V486.4z M330.019,382.15
				c-1.741,7.851-7.185,13.978-14.285,16.725v-39.444c7.431-4.308,14.358-9.391,20.667-15.142L330.019,382.15z M392.532,273.067
				h-18.288c0.801-5.576,1.224-11.272,1.224-17.067s-0.423-11.491-1.224-17.067h18.288V273.067z"/>
			<path d="M196.268,247.467c-4.719,0-8.533,3.823-8.533,8.533s3.814,8.533,8.533,8.533s8.533-3.823,8.533-8.533
				S200.987,247.467,196.268,247.467z"/>
			<path d="M256.001,307.2c-4.719,0-8.533,3.823-8.533,8.533s3.814,8.533,8.533,8.533s8.533-3.823,8.533-8.533
				S260.72,307.2,256.001,307.2z"/>
			<path d="M315.735,247.467c-4.719,0-8.533,3.823-8.533,8.533s3.814,8.533,8.533,8.533s8.533-3.823,8.533-8.533
				S320.454,247.467,315.735,247.467z"/>
			<path d="M290.135,247.467h-25.6V204.8c0-4.71-3.814-8.533-8.533-8.533s-8.533,3.823-8.533,8.533V256
				c0,4.71,3.814,8.533,8.533,8.533h34.133c4.719,0,8.533-3.823,8.533-8.533S294.854,247.467,290.135,247.467z"/>
		</g>
	</g>
</g>
</svg>