<?xml version="1.0" encoding="iso-8859-1"?>
<!-- Uploaded to: SVG Repo, www.svgrepo.com, Generator: SVG Repo Mixer Tools -->
<svg class="svg" version="1.1" id="Layer_1" xmlns="http://www.w3.org/2000/svg" xmlns:xlink="http://www.w3.org/1999/xlink" 
	 viewBox="0 0 511.997 511.997" xml:space="preserve">
<g>
	<g>
		<g>
			<path d="M255.999,153.6c4.719,0,8.533-3.823,8.533-8.533c0-4.71-3.814-8.533-8.533-8.533s-8.533,3.823-8.533,8.533
				C247.465,149.777,251.28,153.6,255.999,153.6z"/>
			<path d="M255.999,102.4c4.719,0,8.533-3.823,8.533-8.533c0-4.71-3.814-8.533-8.533-8.533s-8.533,3.823-8.533,8.533
				C247.465,98.577,251.28,102.4,255.999,102.4z"/>
			<path d="M255.999,51.2c4.719,0,8.533-3.823,8.533-8.533c0-4.71-3.814-8.533-8.533-8.533s-8.533,3.823-8.533,8.533
				C247.465,47.377,251.28,51.2,255.999,51.2z"/>
			<path d="M324.265,256c0-25.211-13.75-47.259-34.133-59.082V25.6c0-14.114-11.486-25.6-25.6-25.6h-17.067
				c-14.114,0-25.6,11.486-25.6,25.6v171.318c-20.384,11.823-34.133,33.871-34.133,59.082c0,25.211,13.75,47.259,34.133,59.082
				v171.316c0,14.123,11.486,25.6,25.6,25.6h17.067c14.114,0,25.6-11.477,25.6-25.6V315.082
				C310.516,303.259,324.265,281.211,324.265,256z M238.932,25.6c0-4.702,3.823-8.533,8.533-8.533h17.067
				c4.71,0,8.533,3.831,8.533,8.533v164.294c-0.656-0.17-1.324-0.311-1.988-0.461c-0.055-0.013-0.11-0.026-0.165-0.038
				c-0.648-0.145-1.297-0.284-1.951-0.411c-0.567-0.111-1.137-0.21-1.707-0.306c-0.56-0.093-1.122-0.181-1.687-0.26
				c-0.655-0.093-1.312-0.177-1.971-0.251c-0.301-0.034-0.6-0.071-0.903-0.101c-0.955-0.094-1.913-0.165-2.874-0.219
				c-0.239-0.013-0.479-0.023-0.718-0.034c-1.031-0.047-2.065-0.079-3.103-0.079s-2.072,0.032-3.103,0.079
				c-0.24,0.011-0.479,0.021-0.718,0.034c-0.961,0.054-1.919,0.125-2.874,0.219c-0.302,0.03-0.601,0.068-0.902,0.101
				c-0.659,0.074-1.316,0.158-1.972,0.251c-0.563,0.079-1.124,0.166-1.682,0.259c-0.572,0.096-1.143,0.195-1.711,0.306
				c-0.654,0.126-1.303,0.266-1.951,0.411c-0.055,0.013-0.11,0.026-0.165,0.038c-0.664,0.15-1.331,0.292-1.988,0.461V25.6z
				 M273.065,486.397c0,4.71-3.823,8.533-8.533,8.533h-17.067c-4.71,0-8.533-3.823-8.533-8.533V322.106
				c1.381,0.357,2.784,0.656,4.197,0.927c0.029,0.006,0.059,0.01,0.088,0.016c1.148,0.219,2.307,0.407,3.474,0.567
				c0.47,0.065,0.941,0.125,1.413,0.18c0.45,0.052,0.898,0.107,1.35,0.15c0.85,0.082,1.702,0.145,2.554,0.195
				c0.369,0.021,0.74,0.037,1.111,0.053c0.796,0.034,1.592,0.055,2.389,0.061c0.164,0.001,0.326,0.012,0.49,0.012
				c0.164,0,0.326-0.011,0.49-0.012c0.797-0.006,1.593-0.027,2.389-0.061c0.371-0.016,0.742-0.031,1.111-0.053
				c0.853-0.05,1.704-0.113,2.554-0.195c0.452-0.043,0.901-0.098,1.351-0.15c0.471-0.055,0.942-0.115,1.412-0.18
				c1.168-0.16,2.327-0.348,3.476-0.567c0.029-0.005,0.058-0.01,0.086-0.015c1.413-0.271,2.816-0.57,4.197-0.927V486.397z
				 M278.523,301.968c-0.198,0.077-0.399,0.145-0.593,0.238c-4.307,2.051-8.815,3.464-13.397,4.246v-7.784
				c0-4.71-3.814-8.533-8.533-8.533s-8.533,3.823-8.533,8.533v7.784c-4.583-0.782-9.09-2.195-13.397-4.246
				c-0.194-0.092-0.394-0.16-0.593-0.237c-14.522-7.143-25.177-20.964-27.952-37.435h7.809c4.719,0,8.533-3.823,8.533-8.533
				s-3.814-8.533-8.533-8.533h-7.809c2.777-16.485,13.449-30.316,27.989-37.454c0.186-0.073,0.374-0.135,0.556-0.221
				c4.31-2.05,8.816-3.463,13.397-4.245v7.787c0,4.71,3.814,8.533,8.533,8.533s8.533-3.823,8.533-8.533v-7.787
				c4.581,0.782,9.088,2.195,13.397,4.245c0.203,0.096,0.411,0.173,0.618,0.253c14.509,7.146,25.154,20.96,27.927,37.422h-7.809
				c-4.719,0-8.533,3.823-8.533,8.533s3.814,8.533,8.533,8.533h7.809C303.699,281.004,293.044,294.825,278.523,301.968z"/>
			<path d="M264.532,247.467v-8.269c0-4.71-3.814-8.533-8.533-8.533s-8.533,3.823-8.533,8.533V256c0,4.71,3.814,8.533,8.533,8.533
				h8.533c4.719,0,8.533-3.823,8.533-8.533S269.251,247.467,264.532,247.467z"/>
		</g>
	</g>
</g>
</svg>