<?xml version="1.0" encoding="iso-8859-1"?>
<!-- Uploaded to: SVG Repo, www.svgrepo.com, Generator: SVG Repo Mixer Tools -->
<svg class="svg" version="1.1" id="Layer_1" xmlns="http://www.w3.org/2000/svg" xmlns:xlink="http://www.w3.org/1999/xlink" 
	 viewBox="0 0 503.607 503.607" xml:space="preserve">
<g>
	<g>
		<g>
			<path d="M218.23,369.311c-4.642,0-8.393,3.752-8.393,8.393v33.574c0,4.642,3.752,8.393,8.393,8.393
				c4.642,0,8.393-3.752,8.393-8.393v-33.574C226.623,373.063,222.871,369.311,218.23,369.311z"/>
			<path d="M251.803,411.279c-4.642,0-8.393,3.752-8.393,8.393v33.574c0,4.642,3.752,8.393,8.393,8.393
				c4.642,0,8.393-3.752,8.393-8.393v-33.574C260.197,415.031,256.445,411.279,251.803,411.279z"/>
			<path d="M251.803,134.295c4.642,0,8.393-3.752,8.393-8.393V92.328c0-4.642-3.752-8.393-8.393-8.393
				c-4.642,0-8.393,3.752-8.393,8.393v33.574C243.41,130.543,247.162,134.295,251.803,134.295z"/>
			<path d="M218.23,92.328c4.642,0,8.393-3.752,8.393-8.393V50.361c0-4.642-3.752-8.393-8.393-8.393
				c-4.642,0-8.393,3.752-8.393,8.393v33.574C209.836,88.576,213.588,92.328,218.23,92.328z"/>
			<path d="M352.525,226.623h-20.102c-5.959-23.057-19.859-42.899-38.652-56.463V25.18C293.77,11.298,282.473,0,268.59,0h-67.148
				c-13.883,0-25.18,11.298-25.18,25.18v144.98c-25.365,18.306-41.967,48.036-41.967,81.643c0,33.607,16.602,63.337,41.967,81.643
				v144.98c0,13.883,11.298,25.18,25.18,25.18h67.148c13.883,0,25.18-11.298,25.18-25.18v-144.98
				c18.793-13.564,32.692-33.406,38.652-56.463h20.102c9.258,0,16.787-7.529,16.787-16.787V243.41
				C369.311,234.152,361.783,226.623,352.525,226.623z M167.869,260.197c-4.642,0-8.393-3.752-8.393-8.393
				c0-4.642,3.752-8.393,8.393-8.393c4.642,0,8.393,3.752,8.393,8.393C176.262,256.445,172.51,260.197,167.869,260.197z
				 M193.049,25.18c0-4.633,3.76-8.393,8.393-8.393h41.967v25.18c0,4.642,3.752,8.393,8.393,8.393c4.642,0,8.393-3.752,8.393-8.393
				v-25.18h8.393c4.633,0,8.393,3.76,8.393,8.393v135.092c-0.336-0.159-0.697-0.269-1.032-0.411
				c-2.216-0.99-4.482-1.863-6.782-2.686c-0.99-0.361-1.964-0.764-2.971-1.091c-2.384-0.781-4.826-1.418-7.286-2.023
				c-0.957-0.227-1.88-0.52-2.837-0.722c-2.61-0.562-5.263-0.957-7.94-1.301c-0.831-0.109-1.654-0.294-2.493-0.386
				c-3.492-0.369-7.034-0.571-10.626-0.571c-2.837,0-5.624,0.193-8.393,0.428v-17.215c0-4.642-3.752-8.393-8.393-8.393
				c-4.642,0-8.393,3.752-8.393,8.393v20.102c-2.014,0.52-4.029,1.049-6.01,1.687c-0.999,0.327-1.964,0.73-2.955,1.083
				c-2.3,0.831-4.574,1.704-6.79,2.694c-0.336,0.143-0.697,0.252-1.032,0.411V25.18z M235.016,260.197
				c-4.642,0-8.393-3.752-8.393-8.393v-33.574c0-4.642,3.752-8.393,8.393-8.393s8.393,3.752,8.393,8.393v25.18h16.787
				c4.642,0,8.393,3.752,8.393,8.393c0,4.642-3.752,8.393-8.393,8.393H235.016z M243.41,318.951c0,4.642-3.752,8.393-8.393,8.393
				s-8.393-3.752-8.393-8.393c0-4.642,3.752-8.393,8.393-8.393S243.41,314.309,243.41,318.951z M226.623,184.656
				c0-4.642,3.752-8.393,8.393-8.393s8.393,3.752,8.393,8.393c0,4.642-3.752,8.393-8.393,8.393S226.623,189.297,226.623,184.656z
				 M181.6,198.387c3.273-3.282,8.595-3.282,11.868,0c3.273,3.273,3.273,8.595,0,11.868s-8.595,3.273-11.868,0
				C178.319,206.982,178.319,201.661,181.6,198.387z M181.6,305.219c-3.282-3.273-3.282-8.595,0-11.877
				c3.273-3.265,8.595-3.265,11.868,0c3.273,3.282,3.273,8.603,0,11.877C190.195,308.501,184.874,308.501,181.6,305.219z
				 M276.984,478.426c0,4.633-3.76,8.393-8.393,8.393h-41.967v-25.18c0-4.642-3.752-8.393-8.393-8.393
				c-4.642,0-8.393,3.752-8.393,8.393v25.18h-8.393c-4.633,0-8.393-3.76-8.393-8.393V343.334c0.327,0.151,0.672,0.252,0.999,0.394
				c2.484,1.116,5.036,2.09,7.621,3.005c0.63,0.218,1.225,0.47,1.855,0.68c9.921,3.273,20.488,5.112,31.492,5.112
				c2.837,0,5.624-0.193,8.393-0.428v17.215c0,4.642,3.752,8.393,8.393,8.393c4.642,0,8.393-3.752,8.393-8.393v-20.102
				c2.124-0.546,4.247-1.108,6.312-1.796c0.63-0.21,1.225-0.462,1.855-0.68c2.585-0.915,5.137-1.888,7.621-3.005
				c0.327-0.143,0.672-0.243,0.999-0.394V478.426z M288.432,305.219c-3.273,3.282-8.595,3.282-11.868,0
				c-3.273-3.273-3.273-8.595,0-11.877c3.273-3.265,8.595-3.265,11.868,0C291.714,296.624,291.714,301.946,288.432,305.219z
				 M288.432,210.256c-3.273,3.273-8.595,3.273-11.868,0s-3.273-8.595,0-11.868c3.273-3.282,8.595-3.282,11.868,0
				C291.714,201.661,291.714,206.982,288.432,210.256z M302.164,260.197c-4.642,0-8.393-3.752-8.393-8.393
				c0-4.642,3.752-8.393,8.393-8.393c4.642,0,8.393,3.752,8.393,8.393C310.557,256.445,306.805,260.197,302.164,260.197z
				 M352.525,260.197H335.36c0.252-2.829,0.378-5.615,0.378-8.393c0-2.778-0.126-5.565-0.378-8.393h17.165V260.197z"/>
		</g>
	</g>
</g>
</svg>